<mxfile host="app.diagrams.net" modified="2022-06-09T17:36:45.503Z" agent="5.0 (Windows NT 10.0; Win64; x64) AppleWebKit/537.36 (KHTML, like Gecko) Chrome/102.0.5005.63 Safari/537.36" etag="SZjs5aGkPuZBeJN76YR5" version="18.0.2" type="github">
  <diagram id="C5RBs43oDa-KdzZeNtuy" name="Page-1">
    <mxGraphModel dx="1980" dy="1246" grid="0" gridSize="10" guides="1" tooltips="1" connect="1" arrows="1" fold="1" page="0" pageScale="1" pageWidth="827" pageHeight="1169" background="#FAD9D5" math="0" shadow="1">
      <root>
        <mxCell id="WIyWlLk6GJQsqaUBKTNV-0" />
        <mxCell id="WIyWlLk6GJQsqaUBKTNV-1" parent="WIyWlLk6GJQsqaUBKTNV-0" />
        <mxCell id="WIyWlLk6GJQsqaUBKTNV-2" value="" style="rounded=0;html=1;jettySize=auto;orthogonalLoop=1;fontSize=11;endArrow=block;endFill=0;endSize=8;strokeWidth=1;shadow=0;labelBackgroundColor=none;edgeStyle=orthogonalEdgeStyle;strokeColor=#182E3E;" parent="WIyWlLk6GJQsqaUBKTNV-1" edge="1">
          <mxGeometry relative="1" as="geometry">
            <mxPoint x="190" as="sourcePoint" />
            <mxPoint x="190" y="50" as="targetPoint" />
          </mxGeometry>
        </mxCell>
        <mxCell id="ZW-Qe_mtZhoAIQG6bePv-8" value="Yes" style="edgeStyle=orthogonalEdgeStyle;rounded=0;orthogonalLoop=1;jettySize=auto;html=1;entryX=0.5;entryY=0;entryDx=0;entryDy=0;labelBackgroundColor=#FAD9D5;strokeColor=#182E3E;" edge="1" parent="WIyWlLk6GJQsqaUBKTNV-1" source="WIyWlLk6GJQsqaUBKTNV-10">
          <mxGeometry relative="1" as="geometry">
            <mxPoint x="190" y="309.9999999999999" as="targetPoint" />
          </mxGeometry>
        </mxCell>
        <mxCell id="WIyWlLk6GJQsqaUBKTNV-10" value="Waiting for user press any key" style="rhombus;whiteSpace=wrap;html=1;shadow=0;fontFamily=Helvetica;fontSize=12;align=center;strokeWidth=1;spacing=6;spacingTop=-4;fillColor=#56517E;strokeColor=#EEEEEE;fontColor=#FFFFFF;" parent="WIyWlLk6GJQsqaUBKTNV-1" vertex="1">
          <mxGeometry x="90" y="160" width="200" height="100" as="geometry" />
        </mxCell>
        <mxCell id="ZW-Qe_mtZhoAIQG6bePv-0" value="Start" style="ellipse;whiteSpace=wrap;html=1;fillColor=#56517E;strokeColor=#EEEEEE;fontColor=#FFFFFF;" vertex="1" parent="WIyWlLk6GJQsqaUBKTNV-1">
          <mxGeometry x="130" y="-80" width="120" height="80" as="geometry" />
        </mxCell>
        <mxCell id="ZW-Qe_mtZhoAIQG6bePv-2" style="edgeStyle=orthogonalEdgeStyle;rounded=0;orthogonalLoop=1;jettySize=auto;html=1;entryX=0.5;entryY=0;entryDx=0;entryDy=0;labelBackgroundColor=#FAD9D5;strokeColor=#182E3E;" edge="1" parent="WIyWlLk6GJQsqaUBKTNV-1" source="ZW-Qe_mtZhoAIQG6bePv-1" target="WIyWlLk6GJQsqaUBKTNV-10">
          <mxGeometry relative="1" as="geometry" />
        </mxCell>
        <mxCell id="ZW-Qe_mtZhoAIQG6bePv-1" value="Setup:&lt;br&gt;Init displayBCD" style="rounded=0;whiteSpace=wrap;html=1;fillColor=#56517E;strokeColor=#EEEEEE;fontColor=#FFFFFF;" vertex="1" parent="WIyWlLk6GJQsqaUBKTNV-1">
          <mxGeometry x="130" y="50" width="120" height="60" as="geometry" />
        </mxCell>
        <mxCell id="ZW-Qe_mtZhoAIQG6bePv-7" value="No" style="curved=1;endArrow=classic;html=1;rounded=0;labelBackgroundColor=#FAD9D5;strokeColor=#182E3E;" edge="1" parent="WIyWlLk6GJQsqaUBKTNV-1" target="WIyWlLk6GJQsqaUBKTNV-10">
          <mxGeometry width="50" height="50" relative="1" as="geometry">
            <mxPoint x="290" y="210" as="sourcePoint" />
            <mxPoint x="240" y="190" as="targetPoint" />
            <Array as="points">
              <mxPoint x="330" y="210" />
              <mxPoint x="280" y="160" />
            </Array>
          </mxGeometry>
        </mxCell>
        <mxCell id="ZW-Qe_mtZhoAIQG6bePv-14" value="Number" style="edgeStyle=orthogonalEdgeStyle;rounded=0;orthogonalLoop=1;jettySize=auto;html=1;labelBackgroundColor=#FAD9D5;strokeColor=#182E3E;" edge="1" parent="WIyWlLk6GJQsqaUBKTNV-1" source="ZW-Qe_mtZhoAIQG6bePv-12" target="ZW-Qe_mtZhoAIQG6bePv-13">
          <mxGeometry relative="1" as="geometry" />
        </mxCell>
        <mxCell id="ZW-Qe_mtZhoAIQG6bePv-16" value="Yes" style="edgeStyle=orthogonalEdgeStyle;rounded=0;orthogonalLoop=1;jettySize=auto;html=1;labelBackgroundColor=#FAD9D5;strokeColor=#182E3E;" edge="1" parent="WIyWlLk6GJQsqaUBKTNV-1" source="ZW-Qe_mtZhoAIQG6bePv-12" target="ZW-Qe_mtZhoAIQG6bePv-15">
          <mxGeometry relative="1" as="geometry" />
        </mxCell>
        <mxCell id="ZW-Qe_mtZhoAIQG6bePv-35" value="" style="edgeStyle=orthogonalEdgeStyle;rounded=0;orthogonalLoop=1;jettySize=auto;html=1;labelBackgroundColor=#FAD9D5;strokeColor=#182E3E;" edge="1" parent="WIyWlLk6GJQsqaUBKTNV-1" source="ZW-Qe_mtZhoAIQG6bePv-12" target="ZW-Qe_mtZhoAIQG6bePv-34">
          <mxGeometry relative="1" as="geometry" />
        </mxCell>
        <mxCell id="ZW-Qe_mtZhoAIQG6bePv-12" value="Key +-x/ ???" style="rhombus;whiteSpace=wrap;html=1;fillColor=#56517E;strokeColor=#EEEEEE;fontColor=#FFFFFF;" vertex="1" parent="WIyWlLk6GJQsqaUBKTNV-1">
          <mxGeometry x="140" y="310" width="100" height="70" as="geometry" />
        </mxCell>
        <mxCell id="ZW-Qe_mtZhoAIQG6bePv-25" style="edgeStyle=orthogonalEdgeStyle;rounded=0;orthogonalLoop=1;jettySize=auto;html=1;entryX=0;entryY=0.5;entryDx=0;entryDy=0;labelBackgroundColor=#FAD9D5;strokeColor=#182E3E;" edge="1" parent="WIyWlLk6GJQsqaUBKTNV-1" source="ZW-Qe_mtZhoAIQG6bePv-13" target="ZW-Qe_mtZhoAIQG6bePv-23">
          <mxGeometry relative="1" as="geometry" />
        </mxCell>
        <mxCell id="ZW-Qe_mtZhoAIQG6bePv-13" value="Stored at R4&lt;br&gt;Display On" style="whiteSpace=wrap;html=1;fillColor=#56517E;strokeColor=#EEEEEE;fontColor=#FFFFFF;" vertex="1" parent="WIyWlLk6GJQsqaUBKTNV-1">
          <mxGeometry x="310" y="315" width="120" height="60" as="geometry" />
        </mxCell>
        <mxCell id="ZW-Qe_mtZhoAIQG6bePv-21" value="No" style="edgeStyle=orthogonalEdgeStyle;rounded=0;orthogonalLoop=1;jettySize=auto;html=1;labelBackgroundColor=#FAD9D5;strokeColor=#182E3E;" edge="1" parent="WIyWlLk6GJQsqaUBKTNV-1" source="ZW-Qe_mtZhoAIQG6bePv-15" target="ZW-Qe_mtZhoAIQG6bePv-20">
          <mxGeometry relative="1" as="geometry" />
        </mxCell>
        <mxCell id="ZW-Qe_mtZhoAIQG6bePv-30" style="edgeStyle=orthogonalEdgeStyle;rounded=0;orthogonalLoop=1;jettySize=auto;html=1;entryX=0;entryY=0.5;entryDx=0;entryDy=0;exitX=0;exitY=0.5;exitDx=0;exitDy=0;labelBackgroundColor=#FAD9D5;strokeColor=#182E3E;" edge="1" parent="WIyWlLk6GJQsqaUBKTNV-1" source="ZW-Qe_mtZhoAIQG6bePv-20" target="WIyWlLk6GJQsqaUBKTNV-10">
          <mxGeometry relative="1" as="geometry">
            <mxPoint x="-90" y="80" as="targetPoint" />
            <mxPoint x="-90" y="460" as="sourcePoint" />
            <Array as="points">
              <mxPoint x="-120" y="450" />
              <mxPoint x="-120" y="210" />
            </Array>
          </mxGeometry>
        </mxCell>
        <mxCell id="ZW-Qe_mtZhoAIQG6bePv-43" value="Yes" style="edgeStyle=orthogonalEdgeStyle;rounded=0;orthogonalLoop=1;jettySize=auto;html=1;labelBackgroundColor=#FAD9D5;strokeColor=#182E3E;" edge="1" parent="WIyWlLk6GJQsqaUBKTNV-1" source="ZW-Qe_mtZhoAIQG6bePv-15">
          <mxGeometry relative="1" as="geometry">
            <mxPoint y="210" as="targetPoint" />
          </mxGeometry>
        </mxCell>
        <mxCell id="ZW-Qe_mtZhoAIQG6bePv-15" value="Used to press +-x/ ???" style="rhombus;whiteSpace=wrap;html=1;fillColor=#56517E;strokeColor=#EEEEEE;fontColor=#FFFFFF;" vertex="1" parent="WIyWlLk6GJQsqaUBKTNV-1">
          <mxGeometry x="-80" y="310" width="160" height="70" as="geometry" />
        </mxCell>
        <mxCell id="ZW-Qe_mtZhoAIQG6bePv-20" value="&lt;span style=&quot;&quot;&gt;Stored at 71H&lt;br&gt;Display on&lt;br&gt;&lt;/span&gt;" style="whiteSpace=wrap;html=1;fillColor=#56517E;strokeColor=#EEEEEE;fontColor=#FFFFFF;" vertex="1" parent="WIyWlLk6GJQsqaUBKTNV-1">
          <mxGeometry x="-60" y="420" width="120" height="60" as="geometry" />
        </mxCell>
        <mxCell id="ZW-Qe_mtZhoAIQG6bePv-27" value="No" style="edgeStyle=orthogonalEdgeStyle;rounded=0;orthogonalLoop=1;jettySize=auto;html=1;labelBackgroundColor=#FAD9D5;strokeColor=#182E3E;" edge="1" parent="WIyWlLk6GJQsqaUBKTNV-1" source="ZW-Qe_mtZhoAIQG6bePv-23" target="ZW-Qe_mtZhoAIQG6bePv-26">
          <mxGeometry relative="1" as="geometry" />
        </mxCell>
        <mxCell id="ZW-Qe_mtZhoAIQG6bePv-29" value="Yes" style="edgeStyle=orthogonalEdgeStyle;rounded=0;orthogonalLoop=1;jettySize=auto;html=1;labelBackgroundColor=#FAD9D5;strokeColor=#182E3E;" edge="1" parent="WIyWlLk6GJQsqaUBKTNV-1" source="ZW-Qe_mtZhoAIQG6bePv-23" target="ZW-Qe_mtZhoAIQG6bePv-28">
          <mxGeometry relative="1" as="geometry" />
        </mxCell>
        <mxCell id="ZW-Qe_mtZhoAIQG6bePv-23" value="Used to press +-x/ ???" style="rhombus;whiteSpace=wrap;html=1;fillColor=#56517E;strokeColor=#EEEEEE;fontColor=#FFFFFF;" vertex="1" parent="WIyWlLk6GJQsqaUBKTNV-1">
          <mxGeometry x="480" y="310" width="160" height="70" as="geometry" />
        </mxCell>
        <mxCell id="ZW-Qe_mtZhoAIQG6bePv-32" style="edgeStyle=orthogonalEdgeStyle;rounded=0;orthogonalLoop=1;jettySize=auto;html=1;entryX=1;entryY=0.5;entryDx=0;entryDy=0;labelBackgroundColor=#FAD9D5;strokeColor=#182E3E;" edge="1" parent="WIyWlLk6GJQsqaUBKTNV-1" source="ZW-Qe_mtZhoAIQG6bePv-26" target="WIyWlLk6GJQsqaUBKTNV-10">
          <mxGeometry relative="1" as="geometry" />
        </mxCell>
        <mxCell id="ZW-Qe_mtZhoAIQG6bePv-26" value="R2 = R2x10 +R4&lt;br&gt;with R2 is Number1" style="whiteSpace=wrap;html=1;fillColor=#56517E;strokeColor=#EEEEEE;fontColor=#FFFFFF;" vertex="1" parent="WIyWlLk6GJQsqaUBKTNV-1">
          <mxGeometry x="500" y="180" width="120" height="60" as="geometry" />
        </mxCell>
        <mxCell id="ZW-Qe_mtZhoAIQG6bePv-33" style="edgeStyle=orthogonalEdgeStyle;rounded=0;orthogonalLoop=1;jettySize=auto;html=1;labelBackgroundColor=#FAD9D5;strokeColor=#182E3E;" edge="1" parent="WIyWlLk6GJQsqaUBKTNV-1">
          <mxGeometry relative="1" as="geometry">
            <mxPoint x="290" y="211" as="targetPoint" />
            <mxPoint x="833.0000000000002" y="315" as="sourcePoint" />
            <Array as="points">
              <mxPoint x="820" y="315" />
              <mxPoint x="820" y="140" />
              <mxPoint x="299" y="140" />
              <mxPoint x="299" y="211" />
            </Array>
          </mxGeometry>
        </mxCell>
        <mxCell id="ZW-Qe_mtZhoAIQG6bePv-28" value="R3 = R3x10 +R4&lt;br&gt;with R3 is Number2" style="whiteSpace=wrap;html=1;fillColor=#56517E;strokeColor=#EEEEEE;fontColor=#FFFFFF;" vertex="1" parent="WIyWlLk6GJQsqaUBKTNV-1">
          <mxGeometry x="749" y="315" width="120" height="60" as="geometry" />
        </mxCell>
        <mxCell id="ZW-Qe_mtZhoAIQG6bePv-37" value="Yes" style="edgeStyle=orthogonalEdgeStyle;rounded=0;orthogonalLoop=1;jettySize=auto;html=1;labelBackgroundColor=#FAD9D5;strokeColor=#182E3E;" edge="1" parent="WIyWlLk6GJQsqaUBKTNV-1" source="ZW-Qe_mtZhoAIQG6bePv-34" target="ZW-Qe_mtZhoAIQG6bePv-36">
          <mxGeometry relative="1" as="geometry" />
        </mxCell>
        <mxCell id="ZW-Qe_mtZhoAIQG6bePv-46" value="Key =" style="edgeStyle=orthogonalEdgeStyle;rounded=0;orthogonalLoop=1;jettySize=auto;html=1;labelBackgroundColor=#FAD9D5;strokeColor=#182E3E;" edge="1" parent="WIyWlLk6GJQsqaUBKTNV-1" source="ZW-Qe_mtZhoAIQG6bePv-34">
          <mxGeometry relative="1" as="geometry">
            <mxPoint x="360" y="465" as="targetPoint" />
          </mxGeometry>
        </mxCell>
        <mxCell id="ZW-Qe_mtZhoAIQG6bePv-34" value="Key ON" style="rhombus;whiteSpace=wrap;html=1;fillColor=#56517E;strokeColor=#EEEEEE;fontColor=#FFFFFF;" vertex="1" parent="WIyWlLk6GJQsqaUBKTNV-1">
          <mxGeometry x="140" y="430" width="100" height="70" as="geometry" />
        </mxCell>
        <mxCell id="ZW-Qe_mtZhoAIQG6bePv-42" style="edgeStyle=orthogonalEdgeStyle;rounded=0;orthogonalLoop=1;jettySize=auto;html=1;entryX=0;entryY=0.463;entryDx=0;entryDy=0;entryPerimeter=0;labelBackgroundColor=#FAD9D5;strokeColor=#182E3E;" edge="1" parent="WIyWlLk6GJQsqaUBKTNV-1" source="ZW-Qe_mtZhoAIQG6bePv-36" target="ZW-Qe_mtZhoAIQG6bePv-0">
          <mxGeometry relative="1" as="geometry">
            <mxPoint x="-170" y="-42.96295166015625" as="targetPoint" />
            <Array as="points">
              <mxPoint x="-180" y="615" />
              <mxPoint x="-180" y="-43" />
            </Array>
          </mxGeometry>
        </mxCell>
        <mxCell id="ZW-Qe_mtZhoAIQG6bePv-36" value="Reset all value" style="whiteSpace=wrap;html=1;fillColor=#56517E;strokeColor=#EEEEEE;fontColor=#FFFFFF;" vertex="1" parent="WIyWlLk6GJQsqaUBKTNV-1">
          <mxGeometry x="130" y="585" width="120" height="60" as="geometry" />
        </mxCell>
        <mxCell id="ZW-Qe_mtZhoAIQG6bePv-50" value="" style="edgeStyle=orthogonalEdgeStyle;rounded=0;orthogonalLoop=1;jettySize=auto;html=1;labelBackgroundColor=#FAD9D5;strokeColor=#182E3E;" edge="1" parent="WIyWlLk6GJQsqaUBKTNV-1" source="ZW-Qe_mtZhoAIQG6bePv-48" target="ZW-Qe_mtZhoAIQG6bePv-49">
          <mxGeometry relative="1" as="geometry" />
        </mxCell>
        <mxCell id="ZW-Qe_mtZhoAIQG6bePv-48" value="Check value at 71H" style="rounded=0;whiteSpace=wrap;html=1;fillColor=#56517E;strokeColor=#EEEEEE;fontColor=#FFFFFF;" vertex="1" parent="WIyWlLk6GJQsqaUBKTNV-1">
          <mxGeometry x="360" y="440" width="120" height="60" as="geometry" />
        </mxCell>
        <mxCell id="ZW-Qe_mtZhoAIQG6bePv-52" style="edgeStyle=orthogonalEdgeStyle;rounded=0;orthogonalLoop=1;jettySize=auto;html=1;entryX=0.5;entryY=0;entryDx=0;entryDy=0;labelBackgroundColor=#FAD9D5;strokeColor=#182E3E;" edge="1" parent="WIyWlLk6GJQsqaUBKTNV-1" source="ZW-Qe_mtZhoAIQG6bePv-49" target="ZW-Qe_mtZhoAIQG6bePv-51">
          <mxGeometry relative="1" as="geometry" />
        </mxCell>
        <mxCell id="ZW-Qe_mtZhoAIQG6bePv-49" value="Math Process" style="whiteSpace=wrap;html=1;rounded=0;fillColor=#56517E;strokeColor=#EEEEEE;fontColor=#FFFFFF;" vertex="1" parent="WIyWlLk6GJQsqaUBKTNV-1">
          <mxGeometry x="560" y="440" width="120" height="60" as="geometry" />
        </mxCell>
        <mxCell id="ZW-Qe_mtZhoAIQG6bePv-54" value="Yes" style="edgeStyle=orthogonalEdgeStyle;rounded=0;orthogonalLoop=1;jettySize=auto;html=1;entryX=1;entryY=0.5;entryDx=0;entryDy=0;labelBackgroundColor=#FAD9D5;strokeColor=#182E3E;" edge="1" parent="WIyWlLk6GJQsqaUBKTNV-1" source="ZW-Qe_mtZhoAIQG6bePv-51" target="ZW-Qe_mtZhoAIQG6bePv-36">
          <mxGeometry relative="1" as="geometry" />
        </mxCell>
        <mxCell id="ZW-Qe_mtZhoAIQG6bePv-51" value="Waiting for user press key ON" style="rhombus;whiteSpace=wrap;html=1;shadow=0;fontFamily=Helvetica;fontSize=12;align=center;strokeWidth=1;spacing=6;spacingTop=-4;fillColor=#56517E;strokeColor=#EEEEEE;fontColor=#FFFFFF;" vertex="1" parent="WIyWlLk6GJQsqaUBKTNV-1">
          <mxGeometry x="520" y="565" width="200" height="100" as="geometry" />
        </mxCell>
        <mxCell id="ZW-Qe_mtZhoAIQG6bePv-53" value="No" style="curved=1;endArrow=classic;html=1;rounded=0;exitX=1;exitY=0.5;exitDx=0;exitDy=0;entryX=1;entryY=0;entryDx=0;entryDy=0;labelBackgroundColor=#FAD9D5;strokeColor=#182E3E;" edge="1" parent="WIyWlLk6GJQsqaUBKTNV-1" source="ZW-Qe_mtZhoAIQG6bePv-51" target="ZW-Qe_mtZhoAIQG6bePv-51">
          <mxGeometry width="50" height="50" relative="1" as="geometry">
            <mxPoint x="722.63" y="595" as="sourcePoint" />
            <mxPoint x="669.9984210526314" y="568.6842105263158" as="targetPoint" />
            <Array as="points">
              <mxPoint x="762.63" y="595" />
              <mxPoint x="712.63" y="545" />
            </Array>
          </mxGeometry>
        </mxCell>
      </root>
    </mxGraphModel>
  </diagram>
</mxfile>
